# xmcd
#
# Track frame offsets:
#	150
#	17946
#	45385
#	58201
#	71052
#	83960
#	111650
#	122442
#	137307
#	180349
#	208983
#	233277
#	270314
#	290228
#
# Disc length: 4118 seconds
#
# Revision: 0
# Processed by: cddbd v1.5.2PL0 Copyright (c) Steve Scherf et al.
# Submitted via: SynApp - FreeCDDB Version: 2.2
#
DISCID=c910140e
DTITLE=02 - ss
DYEAR=2007
DGENRE=ssss
TTITLE0=hans_zimmer-kyrie_for_the_magdalene
TTITLE1=hans_zimmer-dies_mercurii_i_martius
TTITLE2=hans_zimmer-lesprit_des_gabriel
TTITLE3=03 - hans_zimmer-the_paschal_spiral
TTITLE4=04 - hans_zimmer-fructus_gravis
TTITLE5=05 - hans_zimmer-ad_arcana
TTITLE6=06 - hans_zimmer-malleus_maleficarum
TTITLE7=07 - hans_zimmer-salvete_virgines_(bonus_track)
TTITLE8=08 - hans_zimmer-daniels_9th_cipher
TTITLE9=09 - hans_zimmer-poisoned_chalice
TTITLE10=10 - hans_zimmer-the_citrine_cross
TTITLE11=11 - hans_zimmer-rose_of_arimathea
TTITLE12=12 - hans_zimmer-beneath_alrischa
TTITLE13=13 - hans_zimmer-chevaliers_de_sangreal
EXTD=
EXTT0=
EXTT1=
EXTT2=
EXTT3=
EXTT4=
EXTT5=
EXTT6=
EXTT7=
EXTT8=
EXTT9=
EXTT10=
EXTT11=
EXTT12=
EXTT13=
PLAYORDER=
